<svg width="18" height="18" viewBox="0 0 18 18" fill="none" xmlns="http://www.w3.org/2000/svg">
<path d="M14.406 11.7999C14.406 12.0271 14.2776 12.235 14.0743 12.3365L9.27424 14.7366C9.10539 14.821 8.9065 14.821 8.73766 14.7366L3.9376 12.3365C3.7343 12.235 3.60594 12.0271 3.60594 11.7999L3.60583 5.7949L3.60825 5.74729L3.61879 5.67597L3.63004 5.63148L3.65264 5.56769L3.68418 5.50371L3.71693 5.45238L3.76866 5.3891L3.8224 5.33858L3.87161 5.30171L3.90175 5.28273L3.93761 5.26334L8.73767 2.86328C8.90652 2.77881 9.10541 2.77881 9.27425 2.86328L14.0743 5.26334L14.1108 5.28313L14.1696 5.32261L14.2045 5.35133L14.2583 5.40578L14.2929 5.44937L14.3202 5.49085L14.3515 5.54992L14.3787 5.62063L14.3886 5.65639C14.4001 5.70219 14.4058 5.7487 14.4061 5.7949L14.406 11.7999ZM4.80584 6.77076L4.80594 11.4291L8.40592 13.2285V8.57067L4.80584 6.77076ZM13.2056 6.77076L9.60564 8.57075V13.2286L13.2056 11.4292V6.77076ZM9.00573 4.07077L5.54795 5.79994L9.00573 7.52912L12.4633 5.79994L9.00573 4.07077Z" fill="#628361"/>
<path d="M13.2058 1.40002H16.4116V4.60002" stroke="#70936F" stroke-width="1.8"/>
<path d="M4.80579 1.40002H1.59998V4.60002" stroke="#70936F" stroke-width="1.8"/>
<path d="M4.80579 16.8H1.59998V13.6" stroke="#70936F" stroke-width="1.8"/>
<path d="M13.2058 16.8H16.4116V13.6" stroke="#70936F" stroke-width="1.8"/>
</svg>
